<svg width="32" height="32" viewBox="0 0 32 32" fill="none" xmlns="http://www.w3.org/2000/svg"><svg width="32" height="32" viewBox="0 0 32 32" fill="none" xmlns="http://www.w3.org/2000/svg">

  <defs>  <defs>

    <linearGradient id="fav-gradient" x1="0%" y1="0%" x2="100%" y2="100%">    <linearGradient id="fav-gradient" x1="0%" y1="0%" x2="100%" y2="100%">

      <stop offset="0%" style="stop-color:#6366f1;stop-opacity:1" />      <stop offset="0%" style="stop-color:#6366f1;stop-opacity:1" />

      <stop offset="50%" style="stop-color:#8b5cf6;stop-opacity:1" />      <stop offset="100%" style="stop-color:#8b5cf6;stop-opacity:1" />

      <stop offset="100%" style="stop-color:#d946ef;stop-opacity:1" />    </linearGradient>

    </linearGradient>  </defs>

  </defs>  

    <!-- Simplified workflow icon for favicon -->

  <!-- Letter Q with workflow integration -->  <circle cx="16" cy="8" r="4" fill="url(#fav-gradient)"/>

  <!-- Outer Q shape -->  <circle cx="16" cy="8" r="2" fill="white" opacity="0.4"/>

  <circle cx="16" cy="14" r="10" stroke="url(#fav-gradient)" stroke-width="3" fill="none"/>  

    <circle cx="10" cy="18" r="4" fill="url(#fav-gradient)"/>

  <!-- Q tail with arrow -->  <circle cx="10" cy="18" r="2" fill="white" opacity="0.4"/>

  <path d="M 21 20 L 26 25 M 26 25 L 24 26 M 26 25 L 27 23" stroke="url(#fav-gradient)" stroke-width="2.5" stroke-linecap="round" stroke-linejoin="round"/>  

    <circle cx="22" cy="18" r="4" fill="url(#fav-gradient)"/>

  <!-- Inner workflow nodes -->  <circle cx="22" cy="18" r="2" fill="white" opacity="0.4"/>

  <circle cx="16" cy="10" r="1.5" fill="url(#fav-gradient)"/>  

  <circle cx="13" cy="14" r="1.5" fill="url(#fav-gradient)"/>  <circle cx="16" cy="26" r="4" fill="url(#fav-gradient)"/>

  <circle cx="19" cy="14" r="1.5" fill="url(#fav-gradient)"/>  <circle cx="16" cy="26" r="2" fill="white" opacity="0.4"/>

  <circle cx="16" cy="18" r="1.5" fill="url(#fav-gradient)"/>  

    <line x1="16" y1="12" x2="16" y2="15" stroke="url(#fav-gradient)" stroke-width="1.5" stroke-linecap="round"/>

  <!-- Connecting lines -->  <line x1="15" y1="16" x2="11" y2="16" stroke="url(#fav-gradient)" stroke-width="1.5" stroke-linecap="round"/>

  <line x1="16" y1="11.5" x2="16" y2="12.5" stroke="url(#fav-gradient)" stroke-width="1" opacity="0.6"/>  <line x1="17" y1="16" x2="21" y2="16" stroke="url(#fav-gradient)" stroke-width="1.5" stroke-linecap="round"/>

  <line x1="15" y1="13" x2="14" y2="13.5" stroke="url(#fav-gradient)" stroke-width="1" opacity="0.6"/>  <line x1="11" y1="20" x2="14" y2="24" stroke="url(#fav-gradient)" stroke-width="1.5" stroke-linecap="round"/>

  <line x1="17" y1="13" x2="18" y2="13.5" stroke="url(#fav-gradient)" stroke-width="1" opacity="0.6"/>  <line x1="21" y1="20" x2="18" y2="24" stroke="url(#fav-gradient)" stroke-width="1.5" stroke-linecap="round"/>

  <line x1="14" y1="15" x2="15.5" y2="17" stroke="url(#fav-gradient)" stroke-width="1" opacity="0.6"/>  

  <line x1="18" y1="15" x2="16.5" y2="17" stroke="url(#fav-gradient)" stroke-width="1" opacity="0.6"/>  <circle cx="16" cy="16" r="2.5" fill="url(#fav-gradient)"/>

</svg>  <circle cx="16" cy="16" r="1.2" fill="white"/>

</svg>
